# xmcd
# Copyright (C) 1995-1998 Ti Kan
#
# Track frame offsets:
#       182
#       14660
#       25712
#       37995
#       49012
#       59735
#       69732
#       82992
#       97705
#       111427
#
# Disc length: 1738 seconds
#
# Revision: 0
# Processed by: cddbd v1.5.1PL0 Copyright (c) Steve Scherf et al.
# Submitted via: CD-Transfer v1.0
#
DISCID=7d06c80a
DTITLE=Chris Regez - 
DYEAR=1900
DGENRE=
TTITLE0=Headin' west
TTITLE1=I hate parties
TTITLE2=With or without you
TTITLE3=Texas, Texas
TTITLE4=Chill out
TTITLE5=Gimme back my truck
TTITLE6=Someone to trust
TTITLE7=Remember the time
TTITLE8=Love me tonight
TTITLE9=Leavin'
EXTD=
EXTT0=
EXTT1=
EXTT2=
EXTT3=
EXTT4=
EXTT5=
EXTT6=
EXTT7=
EXTT8=
EXTT9=
PLAYORDER=
